<?xml version="1.0" standalone="no"?>
<!DOCTYPE svg PUBLIC "-//W3C//DTD SVG 20010904//EN"
 "http://www.w3.org/TR/2001/REC-SVG-20010904/DTD/svg10.dtd">
<svg version="1.0" xmlns="http://www.w3.org/2000/svg"
 width="148.000000pt" height="148.000000pt" viewBox="0 0 148.000000 148.000000"
 preserveAspectRatio="xMidYMid meet">

<g transform="translate(0.000000,148.000000) scale(0.100000,-0.100000)"
fill="#000000" stroke="none">
<path d="M0 740 l0 -740 740 0 740 0 0 740 0 740 -740 0 -740 0 0 -740z m445
513 l39 -66 -35 -26 c-133 -99 -219 -263 -219 -421 0 -179 111 -365 265 -447
105 -55 225 -81 225 -48 0 8 3 15 6 15 11 0 194 -105 194 -111 0 -7 -184 -119
-194 -119 -3 0 -6 9 -6 20 0 16 -7 20 -38 20 -60 0 -150 27 -242 72 -120 58
-241 179 -298 299 -144 299 -64 630 201 841 27 21 52 38 56 38 4 0 24 -30 46
-67z m267 -240 c3 -58 6 -68 21 -67 9 1 17 -2 17 -7 0 -5 13 -9 29 -9 17 0 32
-4 36 -9 3 -6 36 -8 73 -7 37 2 82 -2 100 -7 29 -10 32 -15 32 -52 0 -23 8
-59 19 -80 29 -60 -1 -145 -45 -128 -9 3 -12 0 -9 -8 5 -15 -58 -64 -72 -56
-11 6 -58 -46 -61 -69 -5 -40 -5 -50 3 -77 7 -27 6 -28 -21 -21 -49 12 -82 33
-90 56 -8 29 -72 136 -98 166 -19 21 -86 33 -86 14 0 -5 -6 -16 -13 -26 -13
-17 -15 -17 -46 -2 -21 11 -39 32 -50 59 -11 23 -35 58 -55 76 -20 19 -36 38
-36 42 0 3 43 4 95 1 l95 -5 0 119 c0 170 -3 164 86 164 l73 0 3 -67z"/>
</g>
</svg>
